<?xml version="1.0" encoding="UTF-8"?>
<!DOCTYPE svg PUBLIC "-//W3C//DTD SVG 1.1//EN" "http://www.w3.org/Graphics/SVG/1.1/DTD/svg11.dtd">
<!-- Creator: CorelDRAW 2021 (64-Bit) -->
<svg xmlns="http://www.w3.org/2000/svg" xml:space="preserve" width="1366px" height="426px" version="1.1" style="shape-rendering:geometricPrecision; text-rendering:geometricPrecision; image-rendering:optimizeQuality; fill-rule:evenodd; clip-rule:evenodd"
viewBox="0 0 1365.28 425.77"
 xmlns:xlink="http://www.w3.org/1999/xlink"
 xmlns:xodm="http://www.corel.com/coreldraw/odm/2003">
 <defs>
  <style type="text/css">
   <![CDATA[
    .fil0 {fill:#7C7E18}
   ]]>
  </style>
 </defs>
 <g id="Layer_x0020_1">
  <metadata id="CorelCorpID_0Corel-Layer"/>
  <path class="fil0" d="M109.94 301.84l0 -63.97 27.79 -17.19c3.31,-1.98 6.98,-4.15 10.18,-5.81 6.74,-3.49 12.5,-6.71 19.67,-10.31 23.85,-11.99 61.92,-27.02 86.66,-35.27 5.69,-1.9 18.48,-6.95 23.61,-7.38l0 65.97 -66.39 23.56c-25.26,10.1 -38.63,16.52 -62.54,28.41 -6.75,3.35 -12.56,6.95 -19.33,10.65l-19.65 11.34zm933.51 -152.92c13.6,1.13 91.52,28.6 99.23,31.7 29.05,11.64 40.84,17.35 67.34,30.6 3.88,1.94 6.98,3.32 10.53,5.47 3.55,2.16 7.3,4.34 10.8,6.19l0 67.96 -42.99 -21.97c-37.39,-16.62 -52.68,-22.74 -93.56,-36.37 -6.84,-2.28 -44.53,-14.46 -51.35,-14.62l0 -68.96zm-353.82 -43.98c55.03,0 110.52,3.21 160.1,8.82 25.85,2.92 51.14,5.94 75.07,9.88 12.38,2.04 23.74,4.33 35.69,6.29 6.12,1 11.19,2.15 17.58,3.41 6.03,1.2 12.6,3.59 18.4,3.59l0 68.96 -67.38 -12.57c-40.76,-7.77 -83.5,-10.67 -125.66,-15.27 -15.84,-1.73 -83.18,-4.14 -96.81,-4.14l-16.99 0 0 -68.97zm-46.97 8l0 60.97c-28.89,0 -57.31,2.69 -84.95,4l-41.08 3.9c-42.62,4.13 -74.43,8.69 -117.27,16.66 -25.48,4.74 -48.94,10.69 -73.53,16.41l0 -67.96 35.78 -8.19c11.46,-2.69 24.75,-5.19 36.43,-7.55 25.37,-5.14 49.82,-8.67 76.4,-12.55 12.01,-1.75 26.35,-3.6 39.26,-4.72 13,-1.13 27.89,-3.3 41.02,-3.95 29.95,-1.48 55.65,-4.02 87.94,-4.02l0 7zm0 -26.99c-15.33,0 -27.83,0.52 -43.01,0.97l-20.68 1.31c-19.69,2.69 -43,2.91 -62.54,5.42 -43.13,5.56 -72.03,8.49 -117.07,16.87l-37.15 7.81c-8.8,2.24 -28.58,7.95 -36.38,8.6l0 -74.96 -47.98 0 0 88.95c-15.1,1.26 -71.04,25.02 -88.11,31.83 -22.95,9.16 -48.46,22.54 -69.62,35.32 -2.76,1.67 -7.49,5.1 -10.18,5.82l0 -49.98 -47.97 0 0 84.96c0,2.99 -6.64,8.13 -8.75,10.24l-19.39 20.59c-12.21,14.97 -33.42,47.85 -33.83,66.11 6.47,0.54 12.32,3.85 18.99,4 5.22,-22.39 19.46,-48.18 35.72,-64.23 2.19,-2.15 5.61,-6.52 7.26,-7.73 0,16.99 -0.09,33.99 0,50.98 0.08,15.66 -1.59,10.82 -19.76,31.21 -8.73,9.81 -14.58,18.07 -21.27,29.7 -12.3,21.35 -10.72,27.23 -14.94,36.03l131.93 0c1.23,-2.58 1.87,-4.76 3.31,-7.67 15.56,-31.33 44.19,-53.4 72.64,-72.29 23.5,-15.61 49.45,-26.5 75.25,-37.7 43.55,-18.9 110.29,-36.75 156.49,-44.39 6.13,-1.02 12.82,-2.03 19.71,-3.28 72.68,-13.24 147.05,-17.57 221.31,-17.57 15.49,0 28.44,1.04 42.97,1 33.24,-0.09 91.63,5.58 124.5,10.43 26.79,3.94 51.8,7.38 76.97,12.98 35.86,7.98 70.7,16.84 105.5,28.43 42.94,14.31 83.58,33.58 120.99,58.91l18.57 14.42c14.05,12.51 27.2,25.7 37.04,41.92 3.08,5.08 4.98,10.05 8.17,14.81l131.93 0 -5.13 -15.86c-12.17,-31.9 -36,-59.45 -62.4,-80.51 -2.97,-2.37 -2.91,-3.63 -6.43,-4.57l0 -68.97c6.67,4.47 20.47,17.21 26.23,23.75 2.04,2.31 2.21,3.15 4.49,5.5 16.92,17.37 30.25,38.97 36.24,64.7 6.67,-0.15 12.53,-3.46 19,-4 -1.17,-14.01 -11.1,-32.54 -18.19,-43.78l-10.08 -14.9c-12.43,-16.54 -26.86,-31.95 -43.26,-44.7 -4.3,-3.34 -9.11,-9.13 -14.43,-10.55l0 -67.97 -47.97 0 0 35.98 -31.99 -15.99c-26,-13.05 -53.86,-24.13 -81.58,-33.36 -22.64,-7.53 -45.81,-15.52 -69.01,-20.94 -3.26,-0.76 -5.32,-0.26 -5.32,-3.67l0 -73.96 -46.98 0 0 64.97c-5.13,-0.43 -11.94,-2.29 -17.57,-3.42l-53.39 -9.58c-41.68,-7.01 -116.1,-15.57 -153.96,-15.95l-19.95 -1.04c-8.1,0.02 -13.06,-1.02 -19.95,-1.03l-32.05 0.07c-5.04,-0.15 -5.01,-1.04 -9.97,-1.04l0 -84.95 -46.97 0 0 85.95z"/>
 </g>
</svg>
